<?xml version="1.0" encoding="UTF-8"?>
<svg width="24" height="24" viewBox="0 0 24 24" fill="none" xmlns="http://www.w3.org/2000/svg">
    <path d="M18 8H19C20.0609 8 21.0783 8.42143 21.8284 9.17157C22.5786 9.92172 23 10.9391 23 12C23 13.0609 22.5786 14.0783 21.8284 14.8284C21.0783 15.5786 20.0609 16 19 16H18" stroke="#00BFA5" stroke-width="2" stroke-linecap="round" stroke-linejoin="round"/>
    <path d="M6 8H18V17C18 18.0609 17.5786 19.0783 16.8284 19.8284C16.0783 20.5786 15.0609 21 14 21H10C8.93913 21 7.92172 20.5786 7.17157 19.8284C6.42143 19.0783 6 18.0609 6 17V8Z" stroke="#00BFA5" stroke-width="2" stroke-linecap="round" stroke-linejoin="round"/>
    <path d="M6 8H5C3.93913 8 2.92172 8.42143 2.17157 9.17157C1.42143 9.92172 1 10.9391 1 12C1 13.0609 1.42143 14.0783 2.17157 14.8284C2.92172 15.5786 3.93913 16 5 16H6" stroke="#00BFA5" stroke-width="2" stroke-linecap="round" stroke-linejoin="round"/>
    <path d="M10 3V6" stroke="#00BFA5" stroke-width="2" stroke-linecap="round" stroke-linejoin="round"/>
    <path d="M14 3V6" stroke="#00BFA5" stroke-width="2" stroke-linecap="round" stroke-linejoin="round"/>
</svg>
